<?xml version="1.0" standalone="no"?>
<!DOCTYPE svg PUBLIC "-//W3C//DTD SVG 20010904//EN"
 "http://www.w3.org/TR/2001/REC-SVG-20010904/DTD/svg10.dtd">
<svg version="1.0" xmlns="http://www.w3.org/2000/svg"
 width="225.000000pt" height="225.000000pt" viewBox="0 0 225.000000 225.000000"
 preserveAspectRatio="xMidYMid meet">

<g transform="translate(0.000000,225.000000) scale(0.100000,-0.100000)"
fill="#000000" stroke="none">
<path d="M0 1782 c0 -51 12 -72 42 -72 10 0 18 -4 18 -9 0 -5 11 -12 25 -15
14 -4 25 -11 25 -16 0 -6 7 -10 15 -10 8 0 15 -3 15 -7 0 -5 19 -21 43 -37 51
-35 126 -126 159 -193 13 -27 26 -49 31 -51 4 -2 7 -14 7 -26 0 -12 4 -26 9
-32 14 -13 41 -155 41 -211 0 -60 -30 -223 -42 -223 -4 0 -8 -9 -8 -20 0 -39
-95 -186 -160 -248 -47 -44 -108 -87 -170 -118 l-50 -25 0 -54 c0 -62 -4 -61
90 -17 120 56 237 160 312 278 39 60 55 95 88 179 35 89 47 318 23 403 -7 23
-18 61 -25 85 -6 23 -18 51 -25 62 -7 11 -13 27 -13 37 0 10 -3 18 -7 18 -5 0
-17 18 -27 40 -11 22 -23 40 -28 40 -4 0 -8 4 -8 10 0 20 -124 149 -172 178
-16 9 -28 20 -28 24 0 4 -9 8 -19 8 -11 0 -21 3 -23 8 -5 11 -64 42 -82 42 -9
0 -16 5 -16 10 0 6 -9 10 -20 10 -17 0 -20 -7 -20 -48z"/>
<path d="M0 1417 l0 -197 145 0 c161 0 169 3 145 61 -7 17 -13 57 -13 90 1 60
-25 119 -55 125 -7 1 -8 0 -2 -3 13 -6 13 -73 1 -73 -5 0 -12 8 -15 18 -7 20
-81 102 -93 102 -5 0 -20 11 -35 25 -15 14 -33 25 -41 25 -7 0 -18 5 -25 12
-9 9 -12 -32 -12 -185z"/>
<path d="M672 1323 l3 -238 148 -3 147 -3 0 35 0 35 -107 3 -108 3 -3 63 c-2
45 1 62 10 63 7 0 41 0 75 -1 89 -2 103 4 103 46 l0 34 -82 0 c-46 0 -89 4
-96 9 -9 5 -12 25 -10 57 l3 49 85 3 c123 3 130 6 130 47 l0 35 -150 0 -150 0
2 -237z"/>
<path d="M1053 1554 c-23 -10 -14 -54 22 -110 19 -30 35 -57 35 -60 0 -3 7
-12 15 -20 24 -25 18 -47 -35 -125 -40 -60 -50 -82 -50 -117 l0 -43 153 3 152
3 3 33 3 32 -95 0 c-54 0 -98 4 -101 10 -4 6 3 27 16 48 58 98 70 124 64 142
-4 11 -11 20 -16 20 -5 0 -9 5 -9 12 0 6 -11 26 -26 45 -14 18 -22 38 -19 43
3 6 39 10 79 10 82 0 110 13 104 51 l-3 24 -140 2 c-77 1 -146 -1 -152 -3z"/>
<path d="M1542 1535 c-7 -14 -12 -32 -12 -39 0 -8 -7 -27 -15 -42 -8 -16 -15
-37 -15 -46 0 -10 -4 -18 -9 -18 -5 0 -11 -12 -14 -27 -4 -23 -64 -195 -92
-265 -6 -16 -1 -18 39 -18 36 0 48 4 52 18 25 76 19 72 111 72 l84 0 20 -45
c19 -42 23 -45 58 -45 42 0 55 8 42 24 -4 6 -16 36 -27 66 -10 30 -22 59 -26
65 -4 5 -8 16 -8 25 0 8 -7 28 -15 44 -8 15 -15 35 -15 42 0 8 -4 22 -9 32 -5
9 -17 37 -26 62 -36 97 -48 115 -81 118 -24 2 -33 -2 -42 -23z m72 -187 c11
-29 23 -57 27 -62 5 -6 9 -18 9 -28 0 -15 -9 -18 -60 -18 -53 0 -60 2 -60 19
0 11 5 23 10 26 6 3 10 14 10 24 0 24 28 91 38 91 4 0 16 -24 26 -52z"/>
<path d="M1858 1549 c-16 -9 -18 -31 -18 -239 l0 -230 40 0 40 0 0 66 c0 56 4
72 28 105 15 21 34 38 42 36 8 -1 23 -20 35 -42 11 -22 23 -41 28 -43 4 -2 7
-10 7 -17 0 -8 6 -20 13 -27 6 -8 20 -27 29 -43 13 -23 25 -31 53 -33 21 -2
44 -1 52 3 14 5 14 7 -1 23 -9 10 -16 24 -16 30 0 7 -4 12 -9 12 -5 0 -13 10
-17 23 -4 12 -9 24 -13 27 -6 5 -25 36 -50 85 -9 16 -18 32 -21 35 -3 3 -11
15 -17 27 -13 23 -9 31 102 157 19 21 32 43 29 48 -10 16 -83 9 -101 -10 -27
-28 -65 -73 -95 -114 -35 -46 -57 -68 -69 -68 -5 0 -9 45 -9 100 0 97 -1 100
-22 100 -13 0 -31 -5 -40 -11z"/>
<path d="M0 1155 l0 -35 155 0 c135 0 156 2 162 16 3 9 2 24 -4 33 -8 13 -35
16 -162 19 l-151 3 0 -36z"/>
<path d="M0 1040 l0 -40 154 0 154 0 10 29 c17 47 4 51 -165 51 l-153 0 0 -40z"/>
<path d="M0 775 c0 -102 2 -185 5 -185 3 0 24 9 47 21 41 21 115 90 155 144
l22 30 1 -37 c0 -21 4 -38 10 -38 18 0 38 65 38 120 -1 31 5 66 11 79 25 47
13 51 -144 51 l-145 0 0 -185z"/>
<path d="M1363 933 c-9 -3 -10 -10 -3 -23 6 -11 6 -30 0 -49 -8 -30 -8 -31 23
-30 18 1 25 3 15 6 -12 3 -16 16 -16 49 0 50 -1 53 -19 47z"/>
<path d="M1600 920 c0 -11 -4 -20 -10 -20 -5 0 -10 -11 -10 -25 0 -14 5 -25
10 -25 6 0 10 11 10 25 0 16 6 25 16 25 13 0 14 3 5 14 -9 11 -9 15 1 19 8 4
7 6 -4 6 -12 1 -18 -6 -18 -19z"/>
<path d="M650 880 c0 -48 1 -50 28 -49 16 1 20 3 10 6 -10 2 -18 13 -18 24 0
11 7 19 18 19 16 1 16 1 0 11 -10 5 -18 17 -18 24 0 8 -4 15 -10 15 -5 0 -10
-22 -10 -50z"/>
<path d="M820 898 c0 -21 4 -38 9 -38 16 0 19 26 5 51 -13 24 -13 23 -14 -13z"/>
<path d="M1171 913 c-18 -20 -9 -31 15 -18 16 8 18 13 10 21 -8 8 -15 7 -25
-3z"/>
<path d="M2126 884 c-10 -25 -16 -48 -12 -51 3 -4 6 2 6 11 0 15 7 17 34 14
24 -3 32 0 29 9 -3 7 -11 13 -18 13 -8 0 -10 9 -7 25 7 41 -12 28 -32 -21z"/>
<path d="M747 903 c-13 -12 -7 -43 8 -43 8 0 15 -7 15 -15 0 -8 7 -15 15 -15
8 0 15 4 15 9 0 5 -7 11 -15 15 -8 3 -15 17 -15 31 0 24 -10 32 -23 18z"/>
<path d="M890 894 c0 -12 4 -14 13 -7 6 6 19 13 27 16 9 3 3 6 -12 6 -20 1
-28 -4 -28 -15z"/>
<path d="M961 900 c0 -8 7 -28 18 -43 15 -24 19 -26 25 -12 7 20 0 35 -19 35
-7 0 -16 8 -18 18 -3 12 -5 13 -6 2z"/>
<path d="M1011 894 c0 -11 3 -14 6 -6 3 7 2 16 -1 19 -3 4 -6 -2 -5 -13z"/>
<path d="M1240 897 c0 -7 9 -19 19 -27 19 -13 19 -14 3 -26 -16 -12 -16 -13
-1 -14 24 0 31 27 12 46 -14 13 -14 17 -2 25 11 7 9 9 -8 9 -13 0 -23 -6 -23
-13z"/>
<path d="M1480 880 c0 -17 -7 -33 -17 -39 -12 -7 -13 -11 -5 -11 7 0 20 6 28
14 16 17 19 66 4 66 -5 0 -10 -13 -10 -30z"/>
<path d="M1680 870 c0 -35 3 -40 23 -39 12 0 16 3 10 6 -7 2 -13 17 -13 33 0
16 6 31 13 33 6 3 2 6 -10 6 -20 1 -23 -4 -23 -39z"/>
<path d="M1750 893 c0 -15 2 -16 10 -3 7 12 12 12 22 2 17 -17 38 -15 38 3 0
10 -11 15 -35 15 -27 0 -35 -4 -35 -17z"/>
<path d="M1913 895 c-17 -19 -16 -29 5 -48 26 -24 47 -21 60 8 15 32 15 35 2
35 -5 0 -10 -9 -10 -19 0 -24 -25 -34 -39 -17 -16 19 -4 44 22 49 19 4 19 4
-3 5 -14 1 -31 -5 -37 -13z"/>
<path d="M2010 890 c0 -11 7 -20 15 -20 18 0 20 -27 3 -33 -8 -2 -7 -3 2 -3
21 2 26 46 6 46 -19 0 -21 16 -3 23 7 3 5 6 -5 6 -12 1 -18 -6 -18 -19z"/>
<path d="M1040 869 c0 -18 3 -29 7 -25 10 10 11 46 1 52 -4 3 -8 -9 -8 -27z"/>
<path d="M1087 893 c-16 -15 -6 -38 16 -39 20 -1 23 2 19 22 -4 23 -21 31 -35
17z"/>
<path d="M1432 875 c0 -16 2 -22 5 -12 2 9 2 23 0 30 -3 6 -5 -1 -5 -18z"/>
<path d="M1515 891 c-3 -5 -1 -12 5 -16 5 -3 10 1 10 9 0 18 -6 21 -15 7z"/>
<path d="M2215 880 c4 -14 11 -32 16 -40 6 -12 8 -10 9 8 0 13 -7 31 -16 40
-15 15 -16 14 -9 -8z"/>
<path d="M1210 872 c0 -29 -20 -39 -37 -17 -12 18 -13 18 -13 -3 0 -34 47 -31
56 3 4 14 4 29 0 32 -3 4 -6 -3 -6 -15z"/>
<path d="M1540 865 c-14 -27 -5 -49 10 -25 9 14 14 50 7 50 -2 0 -10 -11 -17
-25z"/>
<path d="M1644 870 c0 -11 6 -20 13 -20 11 0 11 5 3 20 -6 11 -12 20 -13 20
-2 0 -3 -9 -3 -20z"/>
<path d="M721 844 c0 -11 3 -14 6 -6 3 7 2 16 -1 19 -3 4 -6 -2 -5 -13z"/>
<path d="M861 844 c0 -11 3 -14 6 -6 3 7 2 16 -1 19 -3 4 -6 -2 -5 -13z"/>
<path d="M1870 849 c0 -6 -7 -9 -15 -5 -8 3 -15 1 -15 -4 0 -6 11 -10 25 -10
16 0 25 6 25 15 0 8 -4 15 -10 15 -5 0 -10 -5 -10 -11z"/>
<path d="M1760 840 c0 -5 9 -10 21 -10 11 0 17 5 14 10 -3 6 -13 10 -21 10 -8
0 -14 -4 -14 -10z"/>
<path d="M1608 833 c6 -2 18 -2 25 0 6 3 1 5 -13 5 -14 0 -19 -2 -12 -5z"/>
<path d="M999 740 c-19 -13 -8 -18 21 -10 19 4 21 7 9 12 -9 3 -22 2 -30 -2z"/>
<path d="M1918 735 c-10 -16 -7 -85 5 -92 7 -4 8 0 4 11 -5 13 -1 19 13 23 17
5 18 7 6 17 -8 6 -16 20 -18 31 -2 11 -6 16 -10 10z"/>
<path d="M692 723 c-1 -7 -11 -13 -22 -13 -15 0 -20 -7 -20 -25 0 -25 20 -37
20 -12 1 6 10 1 21 -12 11 -13 23 -21 26 -17 4 4 2 10 -4 14 -6 4 -13 23 -16
42 -2 19 -5 29 -5 23z"/>
<path d="M742 673 c1 -37 1 -37 5 -6 3 26 9 33 31 36 24 4 24 4 -5 6 -32 1
-33 0 -31 -36z"/>
<path d="M840 683 c0 -26 1 -26 15 -7 19 25 19 34 0 34 -10 0 -15 -10 -15 -27z"/>
<path d="M903 703 c11 -10 57 -13 57 -2 0 5 -14 9 -32 9 -17 0 -28 -3 -25 -7z"/>
<path d="M1075 700 c4 -6 10 -8 15 -5 12 7 40 -5 40 -17 0 -6 -10 -19 -22 -29
-27 -24 -15 -25 16 -2 32 25 16 63 -26 63 -17 0 -27 -4 -23 -10z"/>
<path d="M1160 676 c0 -21 6 -36 15 -40 13 -5 14 -2 4 15 -6 11 -8 27 -5 35 6
17 36 7 36 -12 0 -8 4 -14 9 -14 5 0 9 11 9 25 0 22 -5 25 -34 25 -32 0 -34
-2 -34 -34z"/>
<path d="M1251 693 c0 -11 3 -13 6 -6 3 8 14 11 29 7 15 -4 24 -2 24 5 0 6
-13 11 -30 11 -22 0 -30 -5 -29 -17z"/>
<path d="M1363 703 c9 -2 25 -2 35 0 9 3 1 5 -18 5 -19 0 -27 -2 -17 -5z"/>
<path d="M1476 694 c-9 -22 -7 -91 2 -78 4 6 17 14 30 18 17 6 22 15 22 42 0
29 -3 34 -24 34 -13 0 -27 -7 -30 -16z m39 -4 c10 -16 -5 -50 -21 -50 -8 0
-14 10 -14 23 0 34 21 50 35 27z"/>
<path d="M1552 680 c0 -19 2 -27 5 -17 2 9 2 25 0 35 -3 9 -5 1 -5 -18z"/>
<path d="M1583 696 c4 -10 7 -22 7 -27 0 -5 9 -9 20 -9 13 0 20 7 20 20 0 11
-4 20 -9 20 -5 0 -17 3 -27 7 -14 5 -16 3 -11 -11z"/>
<path d="M1671 678 c2 -28 2 -29 6 -8 3 14 10 28 17 32 7 5 5 8 -6 8 -14 0
-18 -8 -17 -32z"/>
<path d="M1750 700 c0 -5 5 -10 10 -10 6 0 10 5 10 10 0 6 -4 10 -10 10 -5 0
-10 -4 -10 -10z"/>
<path d="M1998 698 c5 -7 12 -24 15 -38 4 -22 4 -21 6 7 0 17 7 34 14 36 6 3
-1 6 -17 6 -22 1 -26 -2 -18 -11z"/>
<path d="M2061 693 c0 -11 3 -13 6 -6 3 8 14 11 29 7 15 -4 24 -2 24 5 0 6
-13 11 -30 11 -22 0 -30 -5 -29 -17z"/>
<path d="M2190 701 c0 -5 11 -8 25 -7 33 1 33 16 0 16 -14 0 -25 -4 -25 -9z"/>
<path d="M1061 674 c0 -11 3 -14 6 -6 3 7 2 16 -1 19 -3 4 -6 -2 -5 -13z"/>
<path d="M1331 674 c0 -11 3 -14 6 -6 3 7 2 16 -1 19 -3 4 -6 -2 -5 -13z"/>
<path d="M1807 673 c-13 -12 -7 -33 8 -33 8 0 15 9 15 20 0 20 -11 26 -23 13z"/>
<path d="M1268 662 c-23 -5 -23 -14 0 -33 15 -13 20 -13 30 -3 24 25 7 45 -30
36z"/>
<path d="M1706 654 c-21 -20 -20 -23 4 -17 11 3 20 12 20 19 0 18 -5 18 -24
-2z"/>
<path d="M788 648 c9 -9 15 -9 24 0 9 9 7 12 -12 12 -19 0 -21 -3 -12 -12z"/>
<path d="M911 644 c0 -11 3 -14 6 -6 3 7 2 16 -1 19 -3 4 -6 -2 -5 -13z"/>
<path d="M940 650 c0 -5 5 -10 10 -10 6 0 10 5 10 10 0 6 -4 10 -10 10 -5 0
-10 -4 -10 -10z"/>
<path d="M990 649 c0 -5 5 -7 10 -4 6 3 10 8 10 11 0 2 -4 4 -10 4 -5 0 -10
-5 -10 -11z"/>
<path d="M1016 644 c-4 -10 -1 -14 6 -12 15 5 23 28 10 28 -5 0 -13 -7 -16
-16z"/>
<path d="M1395 650 c3 -5 8 -10 11 -10 2 0 4 5 4 10 0 6 -5 10 -11 10 -5 0 -7
-4 -4 -10z"/>
<path d="M1746 644 c-5 -14 -4 -15 9 -4 17 14 19 20 6 20 -5 0 -12 -7 -15 -16z"/>
<path d="M2060 651 c0 -6 4 -13 10 -16 6 -3 7 1 4 9 -7 18 -14 21 -14 7z"/>
<path d="M2090 650 c0 -5 7 -10 15 -10 8 0 15 5 15 10 0 6 -7 10 -15 10 -8 0
-15 -4 -15 -10z"/>
<path d="M2180 635 c0 -8 8 -11 20 -8 11 3 20 7 20 8 0 1 -9 5 -20 8 -12 3
-20 0 -20 -8z"/>
</g>
</svg>
